<svg width="16" height="17" viewBox="0 0 16 17" fill="none" xmlns="http://www.w3.org/2000/svg">
<g clip-path="url(#clip0_2003_401)">
<path d="M12 5.2C12 5.02319 11.9298 4.85362 11.8047 4.7286C11.6797 4.60357 11.5101 4.53333 11.3333 4.53333L6.00001 4.5C5.82319 4.5 5.65362 4.57024 5.5286 4.69526C5.40358 4.82029 5.33334 4.98986 5.33334 5.16667C5.33334 5.34348 5.40358 5.51305 5.5286 5.63807C5.65362 5.7631 5.82319 5.83333 6.00001 5.83333H9.70667L4.19334 11.36C4.13085 11.422 4.08126 11.4957 4.04741 11.5769C4.01357 11.6582 3.99614 11.7453 3.99614 11.8333C3.99614 11.9213 4.01357 12.0085 4.04741 12.0897C4.08126 12.171 4.13085 12.2447 4.19334 12.3067C4.25531 12.3692 4.32905 12.4187 4.41029 12.4526C4.49153 12.4864 4.57866 12.5039 4.66667 12.5039C4.75468 12.5039 4.84182 12.4864 4.92306 12.4526C5.0043 12.4187 5.07803 12.3692 5.14 12.3067L10.6667 6.78V10.5C10.6667 10.6768 10.7369 10.8464 10.8619 10.9714C10.987 11.0964 11.1565 11.1667 11.3333 11.1667C11.5101 11.1667 11.6797 11.0964 11.8047 10.9714C11.9298 10.8464 12 10.6768 12 10.5V5.2Z" fill="#5449D6"/>
</g>
<defs>
<clipPath id="clip0_2003_401">
<rect width="16" height="16" fill="white" transform="translate(0 0.5)"/>
</clipPath>
</defs>
</svg>
